<?xml version="1.0" standalone="no"?>
<!DOCTYPE svg PUBLIC "-//W3C//DTD SVG 20010904//EN"
 "http://www.w3.org/TR/2001/REC-SVG-20010904/DTD/svg10.dtd">
<svg version="1.0" xmlns="http://www.w3.org/2000/svg"
 width="512.000000pt" height="512.000000pt" viewBox="0 0 512.000000 512.000000"
 preserveAspectRatio="xMidYMid meet">

<g transform="translate(0.000000,512.000000) scale(0.100000,-0.100000)"
fill="#000000" stroke="none">
<path d="M2380 5114 c-19 -2 -78 -9 -130 -14 -330 -36 -695 -160 -990 -336
-375 -224 -680 -529 -904 -904 -175 -292 -291 -632 -338 -990 -16 -123 -16
-497 0 -620 82 -623 356 -1150 820 -1581 256 -239 575 -425 922 -539 274 -91
491 -124 800 -124 228 0 329 9 530 50 689 141 1304 583 1674 1204 175 292 291
632 338 990 16 123 16 497 0 620 -47 358 -163 698 -338 990 -224 375 -529 680
-904 904 -289 173 -634 291 -980 336 -88 12 -438 21 -500 14z m390 -305 c888
-81 1651 -688 1934 -1537 292 -879 16 -1850 -694 -2444 -956 -800 -2381 -674
-3182 282 -800 954 -674 2383 281 3181 465 389 1057 574 1661 518z"/>
<path d="M2270 4501 c-860 -132 -1537 -819 -1655 -1679 -19 -144 -19 -380 0
-524 119 -870 813 -1564 1683 -1683 144 -19 380 -19 524 0 870 119 1564 813
1683 1683 19 144 19 380 0 524 -119 870 -813 1564 -1683 1683 -150 20 -403 18
-552 -4z m523 -296 c678 -102 1214 -587 1381 -1250 104 -414 30 -895 -194
-1255 -312 -504 -837 -800 -1420 -800 -765 0 -1426 519 -1614 1265 -60 239
-60 551 0 790 155 618 649 1098 1264 1229 185 39 407 47 583 21z"/>
<path d="M1940 3499 c-111 -22 -233 -116 -284 -222 -135 -274 65 -597 369
-597 327 0 525 359 350 635 -93 147 -262 218 -435 184z m135 -303 c40 -17 65
-60 65 -112 0 -51 -53 -104 -104 -104 -69 0 -126 53 -126 116 0 33 32 83 63
98 40 19 59 20 102 2z"/>
<path d="M2993 3495 c-110 -31 -190 -89 -248 -180 -45 -71 -65 -138 -65 -220
0 -327 359 -525 635 -350 286 182 242 616 -76 736 -69 26 -180 33 -246 14z
m152 -301 c33 -15 65 -64 65 -98 0 -35 -30 -85 -59 -100 -51 -27 -98 -21 -137
18 -26 26 -34 42 -34 70 0 51 25 95 63 111 42 19 62 18 102 -1z"/>
<path d="M1899 2422 c-152 -56 -252 -173 -281 -331 -23 -123 22 -261 117 -356
259 -259 705 -76 705 290 0 178 -114 337 -282 394 -76 26 -192 27 -259 3z
m207 -316 c26 -26 34 -42 34 -70 0 -109 -119 -164 -193 -90 -74 74 -21 194 87
194 30 0 45 -7 72 -34z"/>
<path d="M2952 2416 c-164 -62 -272 -216 -272 -391 0 -366 446 -549 705 -290
220 220 129 588 -169 688 -73 25 -186 21 -264 -7z m199 -292 c62 -32 74 -126
23 -178 -75 -74 -194 -19 -194 90 0 28 8 44 34 70 39 39 86 45 137 18z"/>
</g>
</svg>
