<?xml version="1.0" standalone="no"?>
<!DOCTYPE svg PUBLIC "-//W3C//DTD SVG 20010904//EN"
 "http://www.w3.org/TR/2001/REC-SVG-20010904/DTD/svg10.dtd">
<svg version="1.0" xmlns="http://www.w3.org/2000/svg"
 width="512.000000pt" height="512.000000pt" viewBox="0 0 512.000000 512.000000"
 preserveAspectRatio="xMidYMid meet">

<g transform="translate(0.000000,512.000000) scale(0.100000,-0.100000)"
fill="#000000" stroke="none">
<path d="M4125 4331 c-92 -27 -144 -58 -216 -130 -100 -100 -159 -249 -147
-372 3 -33 1 -39 -12 -36 -8 3 -269 74 -580 157 -522 141 -570 152 -631 148
-129 -10 -150 -25 -484 -359 l-300 -299 -115 -1 c-140 0 -178 -12 -204 -60
-21 -40 -18 -72 13 -110 17 -22 29 -24 127 -29 l109 -5 7 -54 c5 -29 17 -73
27 -97 28 -62 104 -139 170 -171 49 -24 68 -28 146 -28 145 0 167 14 421 267
l213 211 83 -23 c46 -12 107 -28 137 -37 l54 -15 -126 -127 c-68 -69 -130
-137 -137 -150 -37 -73 47 -161 125 -131 32 12 357 328 406 394 37 49 37 87 2
126 -25 28 -52 38 -286 101 -142 38 -276 69 -299 69 -40 0 -46 -5 -282 -239
-156 -155 -251 -242 -269 -246 -36 -10 -93 0 -124 20 -32 21 -63 74 -63 108 0
26 2 27 49 27 37 0 54 5 75 25 33 31 38 88 11 131 -13 20 0 35 218 252 128
127 245 236 260 241 44 17 79 13 195 -18 59 -17 303 -82 542 -146 239 -64 449
-125 465 -135 47 -29 270 -261 283 -295 6 -16 43 -149 83 -295 39 -146 76
-271 82 -279 7 -8 26 -20 44 -27 35 -15 12 -20 372 77 101 27 195 49 210 49
14 0 44 -10 65 -23 96 -55 99 -180 5 -249 -13 -9 -195 -63 -403 -119 -394
-105 -419 -109 -473 -74 -41 27 -58 68 -109 261 -51 197 -67 226 -122 237 -15
3 -40 -1 -57 -8 -43 -18 -512 -494 -520 -527 -4 -15 -4 -37 0 -50 4 -13 94
-111 200 -218 205 -207 214 -221 200 -298 -6 -32 -54 -85 -348 -381 -191 -191
-356 -349 -374 -357 -45 -20 -82 -17 -127 9 -65 37 -92 113 -65 184 5 15 122
141 259 278 266 267 278 282 247 341 -9 16 -109 122 -224 236 -209 208 -209
208 -253 208 l-44 0 -646 -644 c-700 -699 -664 -669 -757 -651 -46 8 -100 63
-109 110 -14 77 -13 79 359 453 l352 352 60 0 c92 1 134 48 113 128 -9 33 -8
36 106 152 113 115 116 120 116 163 0 49 -31 91 -73 99 -52 10 -82 -12 -247
-177 l-165 -165 -355 -1 c-397 0 -413 -2 -444 -60 -23 -42 -17 -79 19 -115
l24 -24 278 0 277 0 -281 -283 c-329 -330 -338 -343 -338 -487 0 -71 4 -94 27
-142 35 -76 95 -138 165 -174 51 -25 69 -29 148 -29 160 0 117 -35 808 654
l607 606 120 -120 c66 -66 120 -124 120 -129 0 -6 -96 -107 -213 -226 -254
-256 -262 -268 -262 -410 0 -79 4 -103 24 -142 37 -75 95 -134 169 -170 60
-30 75 -33 152 -33 148 1 149 2 561 414 392 392 404 407 415 532 7 75 -12 158
-51 218 -13 20 -87 99 -164 176 -78 77 -141 144 -141 150 0 6 58 68 130 140
87 87 131 124 134 114 3 -8 17 -57 31 -109 32 -116 59 -164 126 -224 36 -33
69 -52 116 -66 82 -25 129 -25 229 1 355 91 726 195 757 211 57 29 125 101
155 166 23 48 27 71 27 142 0 71 -4 94 -26 141 -56 118 -166 196 -291 206 -54
4 -92 -3 -276 -52 -118 -31 -216 -55 -218 -52 -3 2 -29 95 -58 205 -30 110
-57 210 -61 221 -6 20 -3 21 73 21 302 0 533 265 491 565 -27 196 -186 370
-379 414 -67 16 -177 12 -245 -8z m276 -218 c167 -93 204 -318 76 -460 -50
-55 -118 -86 -199 -91 -88 -5 -153 17 -216 73 -170 153 -113 420 105 501 63
24 170 13 234 -23z"/>
<path d="M833 2983 c-70 -14 -98 -115 -47 -167 l27 -26 329 0 330 0 29 29 c54
55 29 139 -49 161 -35 9 -571 12 -619 3z"/>
<path d="M2393 2735 c-13 -9 -28 -33 -34 -55 -10 -33 -9 -43 8 -71 11 -20 33
-39 55 -47 96 -37 172 86 99 159 -34 33 -91 40 -128 14z"/>
<path d="M73 2529 c-17 -5 -41 -22 -53 -37 -29 -36 -22 -98 15 -129 l26 -23
577 0 c532 0 579 2 599 18 48 37 46 127 -4 159 -25 17 -71 18 -578 20 -319 1
-563 -2 -582 -8z"/>
<path d="M390 1627 c-44 -15 -76 -70 -66 -111 4 -15 18 -39 31 -52 24 -24 27
-24 209 -24 l184 0 26 31 c36 42 35 89 -3 131 l-29 33 -159 2 c-107 2 -169 -1
-193 -10z"/>
</g>
</svg>
