<?xml version="1.0" standalone="no"?>
<!DOCTYPE svg PUBLIC "-//W3C//DTD SVG 20010904//EN"
 "http://www.w3.org/TR/2001/REC-SVG-20010904/DTD/svg10.dtd">
<svg version="1.0" xmlns="http://www.w3.org/2000/svg"
 width="290.000000pt" height="512.000000pt" viewBox="0 0 290.000000 512.000000"
 preserveAspectRatio="xMidYMid meet">

<g transform="translate(0.000000,512.000000) scale(0.100000,-0.100000)"
fill="#000000" stroke="none">
<path d="M766 5104 c-145 -35 -294 -151 -355 -275 -46 -94 -390 -1159 -403
-1250 -22 -147 37 -329 143 -437 28 -29 135 -114 238 -188 102 -75 187 -141
189 -148 1 -7 -36 -163 -83 -347 -104 -400 -200 -792 -251 -1024 -34 -154 -38
-184 -38 -315 0 -119 4 -160 23 -230 52 -195 147 -357 295 -506 347 -346 863
-469 1330 -318 330 106 625 360 756 648 17 37 43 111 57 164 24 84 27 116 27
242 0 131 -4 161 -38 315 -54 242 -130 554 -240 983 -53 205 -96 378 -96 385
0 7 84 73 187 147 102 74 210 160 240 190 108 110 168 290 145 439 -12 79
-351 1138 -395 1234 -55 119 -183 231 -317 279 l-65 23 -645 2 c-531 1 -655
-1 -704 -13z m1350 -311 c90 -48 103 -74 209 -400 53 -164 135 -414 181 -557
46 -142 87 -275 90 -296 9 -53 -19 -138 -58 -183 -40 -46 -290 -229 -300 -219
-8 9 -52 214 -82 385 -18 100 -31 149 -51 183 -30 51 -97 99 -162 116 l-43 10
0 104 c0 173 -32 271 -120 366 -180 197 -480 197 -660 1 -88 -96 -120 -191
-120 -359 l0 -112 -42 -10 c-66 -17 -133 -65 -163 -116 -20 -34 -33 -83 -51
-183 -30 -171 -74 -376 -82 -385 -9 -10 -259 173 -300 219 -39 45 -67 130 -58
183 5 30 174 563 338 1059 40 124 92 182 188 212 14 4 300 7 635 6 606 -2 610
-2 651 -24z m-579 -671 c62 -44 63 -51 63 -472 0 -374 0 -383 -22 -421 -23
-41 -84 -79 -128 -79 -44 0 -105 38 -128 79 -22 40 -23 43 -20 433 3 388 3
393 25 424 47 65 146 82 210 36z m-523 -923 c18 -112 126 -247 241 -300 132
-62 258 -62 390 0 116 54 222 188 241 304 4 20 9 37 13 37 6 0 398 -1577 457
-1840 41 -187 50 -281 35 -379 -67 -431 -560 -768 -1044 -714 -489 55 -875
447 -844 857 4 45 22 151 41 236 60 266 451 1840 457 1840 4 0 9 -18 13 -41z"/>
<path d="M955 1576 c-71 -31 -92 -83 -140 -341 -29 -154 -5 -261 83 -370 225
-280 632 -345 936 -151 123 79 207 179 246 297 28 80 23 155 -20 349 -30 137
-44 167 -94 204 -27 20 -40 21 -504 23 -381 2 -483 0 -507 -11z m815 -290 c0
-3 7 -38 16 -78 20 -96 13 -127 -40 -182 -71 -72 -196 -126 -296 -126 -100 0
-225 54 -296 126 -53 55 -60 86 -40 182 9 40 16 75 16 78 0 2 144 4 320 4 176
0 320 -2 320 -4z"/>
</g>
</svg>
