<?xml version="1.0" standalone="no"?>
<!DOCTYPE svg PUBLIC "-//W3C//DTD SVG 20010904//EN"
 "http://www.w3.org/TR/2001/REC-SVG-20010904/DTD/svg10.dtd">
<svg version="1.0" xmlns="http://www.w3.org/2000/svg"
 width="651.000000pt" height="383.000000pt" viewBox="0 0 651.000000 383.000000"
 preserveAspectRatio="xMidYMid meet">

<g transform="translate(0.000000,383.000000) scale(0.100000,-0.100000)"
fill="#000000" stroke="none">
<path d="M2943 3483 c-7 -3 -13 -9 -13 -15 0 -10 58 -112 170 -298 32 -52 102
-171 156 -265 188 -327 302 -523 528 -905 125 -212 239 -406 252 -432 l23 -46
1 -426 c1 -234 -2 -430 -5 -436 -7 -11 -1301 -15 -1329 -4 -9 3 -16 10 -16 14
0 5 37 46 83 92 146 147 256 331 326 544 90 273 111 650 56 1004 -54 345 -174
606 -372 805 -98 98 -176 154 -304 214 -126 60 -218 86 -386 110 -240 35 -457
43 -1168 39 l-680 -3 -3 -1549 c-2 -1233 0 -1551 10 -1558 7 -4 1083 -8 2391
-8 l2377 0 21 21 c20 20 20 23 13 567 l-7 547 26 62 c27 67 94 190 202 373 37
63 85 144 105 180 20 36 110 193 199 350 90 157 194 341 233 410 39 69 134
232 211 363 76 131 138 240 135 242 -2 2 -239 5 -526 6 -395 1 -526 -2 -537
-11 -21 -17 -117 -196 -292 -540 -188 -369 -253 -490 -262 -490 -5 0 -124 232
-265 515 -206 411 -262 516 -279 520 -29 6 -1058 14 -1074 8z m-989 -282 c250
-30 506 -172 653 -362 170 -219 251 -482 261 -844 10 -406 -65 -722 -221 -930
-90 -119 -253 -257 -382 -322 -67 -34 -195 -70 -290 -82 -93 -11 -728 -26
-1125 -26 l-225 0 -3 1280 c-1 704 0 1286 3 1293 4 11 113 13 618 9 382 -3
649 -9 711 -16z m1790 -16 c18 -19 68 -94 111 -167 44 -73 129 -209 189 -303
60 -93 149 -235 199 -315 49 -80 111 -176 137 -215 25 -38 61 -97 80 -130 44
-79 78 -125 94 -125 6 0 41 48 76 106 36 58 86 138 111 177 26 40 127 200 224
357 97 157 187 301 200 320 12 19 55 88 95 153 40 66 87 132 103 148 l29 30
146 -3 c126 -3 147 -5 150 -19 3 -18 -13 -46 -264 -465 -89 -148 -237 -397
-329 -554 -93 -157 -202 -341 -243 -410 -41 -69 -92 -159 -113 -200 l-39 -75
-3 -413 c-3 -346 -6 -415 -18 -423 -22 -14 -232 -11 -252 4 -14 11 -16 56 -19
422 l-3 410 -26 55 c-15 30 -99 177 -189 325 -188 313 -234 391 -435 730 -81
138 -182 309 -225 380 -43 72 -87 149 -99 172 -20 40 -20 43 -3 52 9 6 77 11
151 11 l133 0 32 -35z"/>
<path d="M915 2958 c-3 -7 -4 -476 -3 -1043 l3 -1030 280 -3 c353 -3 659 11
785 38 123 25 219 73 304 151 197 181 286 453 286 872 -1 396 -87 655 -277
825 -100 91 -219 147 -364 172 -64 11 -580 29 -862 30 -109 0 -149 -3 -152
-12z m735 -273 c74 -8 152 -19 173 -25 182 -52 294 -182 348 -404 26 -108 35
-326 20 -491 -43 -487 -202 -615 -762 -615 -92 0 -139 4 -147 12 -9 9 -12 193
-12 765 l0 754 23 9 c34 14 207 11 357 -5z"/>
</g>
</svg>
